<?xml version="1.0" standalone="no"?>
<!DOCTYPE svg PUBLIC "-//W3C//DTD SVG 20010904//EN"
 "http://www.w3.org/TR/2001/REC-SVG-20010904/DTD/svg10.dtd">
<svg version="1.0" xmlns="http://www.w3.org/2000/svg"
 width="75.000000pt" height="27.000000pt" viewBox="0 0 75.000000 27.000000"
 preserveAspectRatio="xMidYMid meet">

<g transform="translate(0.000000,27.000000) scale(0.100000,-0.100000)"
fill="#000000" stroke="none">
<path d="M357 264 c-4 -4 -4 -17 -1 -29 3 -11 -2 -41 -10 -66 -9 -24 -16 -52
-16 -63 0 -13 -3 -16 -12 -8 -7 5 -32 16 -55 23 -24 6 -43 14 -43 16 0 2 11
16 25 31 50 54 18 106 -49 78 -39 -16 -52 -32 -38 -49 5 -7 10 -38 10 -71 0
-59 11 -84 31 -72 6 4 11 16 11 27 0 24 3 24 69 -2 56 -21 81 -20 81 5 0 24
20 30 34 10 13 -17 41 -11 30 7 -3 5 0 17 7 26 11 12 11 17 -2 27 -9 6 -24 35
-33 64 -17 50 -25 60 -39 46z m-127 -63 c-15 -29 -30 -35 -30 -13 0 22 8 32
27 32 10 0 11 -5 3 -19z"/>
<path d="M554 198 l-9 -73 -33 58 c-18 31 -36 57 -41 57 -8 0 -21 -92 -21
-146 0 -42 27 -27 34 18 l7 42 25 -42 c32 -54 55 -52 66 3 12 53 6 147 -8 152
-8 3 -15 -21 -20 -69z"/>
<path d="M624 243 c-14 -14 -16 -30 -11 -97 4 -43 9 -81 12 -84 9 -9 86 31
101 52 21 30 18 89 -7 120 -24 31 -69 35 -95 9z m82 -60 c6 -31 3 -39 -16 -55
-32 -26 -37 -23 -43 29 -6 57 -3 63 28 63 20 0 25 -7 31 -37z"/>
<path d="M27 224 c-20 -11 -27 -20 -22 -32 3 -9 9 -54 12 -99 4 -60 10 -83 19
-83 8 0 14 5 14 10 0 6 8 10 18 10 43 0 85 95 52 115 -8 5 -7 11 0 20 6 8 10
26 8 42 -3 24 -8 28 -38 30 -19 2 -48 -4 -63 -13z m73 -23 c0 -6 -11 -22 -24
-37 l-23 -28 -8 24 c-5 17 -3 27 11 37 21 15 44 17 44 4z m0 -95 c0 -19 -29
-48 -41 -41 -13 8 -11 29 3 43 16 16 38 15 38 -2z"/>
</g>
</svg>
